<svg width="24" height="24" viewBox="0 0 24 24" fill="none" xmlns="http://www.w3.org/2000/svg" aria-hidden="true">
  <g stroke="currentColor" stroke-width="1.65" stroke-linecap="round" stroke-linejoin="round">
    <path d="M8 9.4C8 6.2 9.8 4 12 4C14.2 4 16 6.2 16 9.4" />
    <path d="M10.8 4.2V7.3" />
    <path d="M13.2 4.2V7.3" />
    <path d="M6.6 9.2H17.4V10.9H6.6V9.2Z" />
    <path d="M8.2 10.9C8.2 14 9.8 15.7 12 15.7C14.2 15.7 15.8 14 15.8 10.9" />
    <path d="M8.4 14.8C6 15.3 4.6 16.8 4.2 19.1" />
    <path d="M15.6 14.8C18 15.3 19.4 16.8 19.8 19.1" />
    <path d="M8.2 15.6C8.8 17.1 10.2 18.6 12 19.3C13.8 18.6 15.2 17.1 15.8 15.6" />
    <path d="M6.6 16.4C8.1 17 10.1 17.3 12 17.3C13.9 17.3 15.9 17 17.4 16.4V20.4C15.7 21 13.9 21.3 12 21.3C10.1 21.3 8.3 21 6.6 20.4V16.4Z" />
    <path d="M4.7 16.2H6.6V20.9H4.7C4.1 20.9 3.6 20.4 3.6 19.8V17.3C3.6 16.7 4.1 16.2 4.7 16.2Z" />
    <path d="M19.3 16.2H17.4V20.9H19.3C19.9 20.9 20.4 20.4 20.4 19.8V17.3C20.4 16.7 19.9 16.2 19.3 16.2Z" />
    <path d="M3.7 18.5C2.8 18.7 2.4 19.4 2.4 20.2C2.4 21.2 3.1 22 4.2 22H5.2" />
    <path d="M20.3 18.5C21.2 18.7 21.6 19.4 21.6 20.2C21.6 21.2 20.9 22 19.8 22H18.8" />
  </g>
</svg>
